<svg width="61" height="85" viewBox="0 0 61 85" fill="none" xmlns="http://www.w3.org/2000/svg">
<path d="M47.7978 3.01723H42.7361L48 8.4254V11H37.1582V7.98537H42.4214L37.1582 2.5772V0H47.7978V3.01723ZM35.0085 3.01723H29.9468L35.2107 8.4254V11H24.3682V7.98537H29.6322L24.3682 2.5772V0H35.0085V3.01723ZM22.3447 3.14054H16.8826V7.85946H22.3447V11H13V0H22.3447V3.14054Z" fill="white"/>
<path d="M5.55169 78.1021L0 16H61L55.4435 78.0918L30.4626 85L5.55169 78.1021Z" fill="#1572B6"/>
<path d="M31 80L50.429 74.3844L55 21H31V80Z" fill="#33A9DC"/>
<path d="M31 44.0639H41.0262L41.7194 35.9368H31V28H50L49.8184 30.1292L47.9564 52H31V44.0639Z" fill="white"/>
<path d="M30.9993 63.2072L30.9652 63.2166L22.3326 60.9665L21.78 55H14L15.0864 66.7463L30.9638 71L31 70.9899L30.9993 63.2072Z" fill="#EBEBEB"/>
<path d="M39.8305 52L38.9695 61.492L31 63.6258V71L45.6489 66.9731L45.7566 65.7754L47 52H39.8305Z" fill="white"/>
<path d="M31 28V35.9356H11.7154L11.5548 34.1521L11.1914 30.1291L11 28H31ZM30.972 44.0637V52H22.1931L22.0333 50.2165L21.6692 46.1927L21.4778 44.0637H30.972Z" fill="#EBEBEB"/>
</svg>
