<svg width="93" height="93" viewBox="0 0 93 93" fill="none" xmlns="http://www.w3.org/2000/svg">
<path d="M55.5073 40.4521C53.5186 40.4521 52.0379 41.4286 52.0379 43.779C52.0379 45.5497 53.0137 46.779 55.4004 46.779C57.4232 46.779 58.7979 45.5867 58.7979 43.7056C58.7979 41.5739 57.5678 40.4521 55.5073 40.4521ZM51.5322 57.0468C51.0614 57.6244 50.5921 58.2383 50.5921 58.9627C50.5921 60.4079 52.4346 60.8423 54.9667 60.8423C57.0628 60.8423 59.9189 60.6956 59.9189 58.7462C59.9189 57.5873 58.5443 57.5161 56.8085 57.4072L51.5322 57.0468ZM62.2309 40.5611C62.8811 41.393 63.5692 42.5497 63.5692 44.2128C63.5692 48.2249 60.4239 50.5746 55.8698 50.5746C54.7117 50.5746 53.6632 50.4307 53.013 50.2498L51.8199 52.1657L55.3619 52.3815C61.6162 52.7804 65.3028 52.9613 65.3028 57.7675C65.3028 61.9256 61.6525 64.2739 55.3619 64.2739C48.8185 64.2739 46.325 62.6108 46.325 59.7561C46.325 58.1286 47.0486 57.2633 48.3136 56.0681C47.1198 55.5639 46.7231 54.6607 46.7231 53.6842C46.7231 52.8887 47.1205 52.1657 47.7715 51.4784C48.4225 50.7925 49.1455 50.1045 50.0123 49.3096C48.2409 48.4421 46.904 46.5625 46.904 43.8866C46.904 39.7299 49.6512 36.8752 55.1817 36.8752C56.7366 36.8752 57.6775 37.0184 58.508 37.2371H65.5578V40.309L62.2309 40.5611ZM71.9174 33.9929C69.8561 33.9929 68.6631 32.7992 68.6631 30.7379C68.6631 28.6796 69.8561 27.5578 71.9174 27.5578C74.0142 27.5578 75.2065 28.6789 75.2065 30.7379C75.2073 32.7992 74.0142 33.9929 71.9174 33.9929ZM67.2529 55.7172V52.8625L69.0976 52.6097C69.6033 52.537 69.6752 52.4287 69.6752 51.8853V41.2578C69.6752 40.8611 69.5677 40.6068 69.2051 40.4993L67.2529 39.812L67.6503 36.8854H75.1346V51.886C75.1346 52.4658 75.1695 52.537 75.713 52.6104L77.557 52.8632V55.7179L67.2529 55.7172ZM91.8521 54.3149C90.2965 55.0727 88.0202 55.7608 85.9582 55.7608C81.657 55.7608 80.0309 54.0272 80.0309 49.9403V40.4695C80.0309 40.2537 80.0309 40.1084 79.741 40.1084H77.2111V36.8912C80.3935 36.5287 81.6577 34.9382 82.0551 30.9981H85.4903V36.1327C85.4903 36.3848 85.4903 36.4945 85.7795 36.4945H90.8763V40.1092H85.4903V48.748C85.4903 50.8804 85.9967 51.7116 87.9483 51.7116C88.9618 51.7116 90.0088 51.4595 90.8763 51.134L91.8521 54.3149Z" fill="white"/>
<path d="M38.2899 44.8289L21.7613 28.3011C21.3042 27.8441 20.6843 27.5873 20.0379 27.5873C19.3915 27.5873 18.7716 27.8441 18.3145 28.3011L14.8822 31.7333L19.235 36.0869C19.7469 35.9129 20.2973 35.8857 20.8238 36.0085C21.3503 36.1312 21.8319 36.399 22.2139 36.7815C22.5983 37.1662 22.8667 37.6512 22.9884 38.1812C23.11 38.7112 23.0801 39.2648 22.902 39.7786L27.0979 43.9745C27.7181 43.7584 28.3932 43.7594 29.0127 43.9773C29.6322 44.1952 30.1593 44.6171 30.5077 45.1738C30.856 45.7305 31.0049 46.3891 30.9299 47.0415C30.8549 47.6939 30.5605 48.3015 30.095 48.7647C29.621 49.2395 28.9972 49.5354 28.3296 49.6019C27.662 49.6684 26.992 49.5015 26.4337 49.1294C25.8754 48.7574 25.4633 48.2033 25.2677 47.5616C25.072 46.9199 25.1049 46.2302 25.3607 45.61L21.4474 41.6967L21.4467 51.995C21.8598 52.199 22.2183 52.4985 22.4926 52.8686C22.7669 53.2387 22.9491 53.6689 23.024 54.1234C23.099 54.578 23.0647 55.0438 22.9238 55.4825C22.7829 55.9211 22.5396 56.3198 22.2139 56.6457C21.9103 56.9493 21.5431 57.1816 21.1387 57.326C20.7344 57.4705 20.303 57.5233 19.8758 57.4808C19.4485 57.4383 19.036 57.3016 18.6681 57.0803C18.3001 56.8591 17.9858 56.559 17.7479 56.2016C17.51 55.8442 17.3543 55.4384 17.2922 55.0136C17.2301 54.5887 17.2631 54.1554 17.3888 53.7448C17.5144 53.3343 17.7296 52.9567 18.0189 52.6394C18.3081 52.3221 18.6642 52.073 19.0614 51.91V41.5165C18.7072 41.3714 18.3852 41.1576 18.114 40.8875C17.8429 40.6173 17.6279 40.2961 17.4815 39.9424C17.3351 39.5887 17.2603 39.2096 17.2612 38.8268C17.2621 38.444 17.3388 38.0652 17.4869 37.7122L13.1959 33.4197L1.86221 44.7526C1.63569 44.9791 1.456 45.2479 1.3334 45.5438C1.21081 45.8397 1.14771 46.1568 1.14771 46.4771C1.14771 46.7974 1.21081 47.1145 1.3334 47.4104C1.456 47.7063 1.63569 47.9752 1.86221 48.2016L18.3908 64.7295C18.8481 65.1865 19.4683 65.4433 20.1149 65.4433C20.7615 65.4433 21.3817 65.1865 21.839 64.7295L38.2899 48.2772C38.5164 48.0508 38.696 47.782 38.8186 47.4862C38.9412 47.1904 39.0043 46.8733 39.0043 46.553C39.0043 46.2328 38.9412 45.9157 38.8186 45.6199C38.696 45.3241 38.5164 45.0553 38.2899 44.8289Z" fill="#F34F29"/>
</svg>
