<svg width="61" height="86" viewBox="0 0 61 86" fill="none" xmlns="http://www.w3.org/2000/svg">
<path d="M5.55141 79.0028L0 16H61L55.4431 78.993L30.4627 86L5.55141 79.0028Z" fill="#E44D26"/>
<path d="M31 81L50.4285 75.3843L55 22H31V81Z" fill="#F16529"/>
<path d="M31 45.7273H20.4453L19.7172 37.7699H31V30H11L11.1903 32.085L13.1512 53.4965H31V45.7273ZM31 65.9056L30.9647 65.9148L22.0824 63.5776L21.5144 57.3815H13.5073L14.6247 69.5813L30.9632 74L31 73.9895V65.9056Z" fill="#EBEBEB"/>
<path d="M6 0H9.82141V3.63288H13.3179V0H17.14V10.9993H13.3179V7.31611H9.82209V10.9993H6V0ZM22.1652 3.64792H18.8006V0H29.3533V3.64792H25.9873V10.9993H22.1652V3.64792ZM31.0281 0H35.0127L37.4645 3.86501L39.9135 0H43.9001V10.9993H40.093V5.54741L37.4645 9.45818H37.3978L34.7673 5.54741V10.9993H31.0275V0H31.0281ZM45.8026 0H49.6254V7.36385H55V11H45.8026V0Z" fill="white"/>
<path d="M31 45.7288V53.4988H40.3396L39.4594 63.5766L31 65.9161V74L46.5491 69.5851L46.6629 68.2717L48.4452 47.8148L48.6303 45.7288H46.5861H31ZM31 30V37.7707H49.3206L49.4721 36.0239L49.8183 32.0852L50 30H31Z" fill="white"/>
</svg>
