<svg width="92" height="92" viewBox="0 0 92 92" fill="none" xmlns="http://www.w3.org/2000/svg">
<path d="M46 40.825C49.6917 40.825 52.6844 37.8323 52.6844 34.1406C52.6844 30.449 49.6917 27.4563 46 27.4563C42.3084 27.4563 39.3157 30.449 39.3157 34.1406C39.3157 37.8323 42.3084 40.825 46 40.825Z" fill="#61DAFB"/>
<path d="M46 58.7219C51.2469 63.825 56.4219 66.8438 60.5907 66.8438C61.9563 66.8438 63.25 66.5562 64.3282 65.9094C68.0657 63.7531 69.4313 58.3625 68.1375 50.6719C67.9219 49.3063 67.6344 47.9406 67.275 46.5031C68.7125 46.0719 70.0063 45.6406 71.3 45.2094C78.5594 42.4063 82.5844 38.525 82.5844 34.2844C82.5844 29.9719 78.5594 26.0906 71.3 23.3594C70.0063 22.8563 68.7125 22.425 67.275 22.0656C67.6344 20.6281 67.9219 19.2625 68.1375 17.8969C69.3594 10.0625 67.9938 4.60001 64.2563 2.44376C63.1782 1.79688 61.8844 1.50938 60.5188 1.50938C56.4219 1.50938 51.175 4.52813 45.9282 9.63125C40.7532 4.52813 35.5781 1.50938 31.4094 1.50938C30.0438 1.50938 28.75 1.79688 27.6719 2.44376C23.9344 4.60001 22.5688 9.99063 23.8625 17.6813C24.0781 19.0469 24.3657 20.4125 24.725 21.85C23.2875 22.2813 21.9938 22.7125 20.7 23.1438C13.4406 25.9469 9.41565 29.8281 9.41565 34.0688C9.41565 38.3813 13.4406 42.2625 20.7 44.9938C21.9938 45.4969 23.2875 45.9281 24.725 46.2875C24.3657 47.725 24.0781 49.0906 23.8625 50.4562C22.6406 58.1469 24.0063 63.6094 27.6719 65.6938C28.75 66.3406 30.0438 66.6281 31.4094 66.6281C35.5781 66.7719 40.7532 63.7531 46 58.7219ZM41.975 49.0187C43.2688 49.0906 44.6344 49.0906 46 49.0906C47.3657 49.0906 48.7313 49.0906 50.025 49.0187C48.7313 50.7438 47.3657 52.325 46 53.8344C44.6344 52.325 43.2688 50.7438 41.975 49.0187ZM33.0625 41.6156C33.7813 42.8375 34.4282 43.9875 35.2188 45.1375C32.9907 44.85 30.9063 44.4906 28.8938 44.0594C29.5406 42.1188 30.2594 40.1063 31.1219 38.0938C31.6969 39.2438 32.3438 40.4656 33.0625 41.6156ZM28.8938 24.2938C30.9063 23.8625 32.9907 23.5031 35.2188 23.2156C34.5 24.3656 33.7813 25.5156 33.0625 26.7375C32.3438 27.9594 31.6969 29.1094 31.1219 30.3313C30.1875 28.2469 29.4688 26.2344 28.8938 24.2938ZM32.8469 34.1406C33.7813 32.2 34.7875 30.2594 35.9375 28.3188C37.0156 26.45 38.2375 24.5813 39.4594 22.7125C41.6157 22.5688 43.7719 22.4969 46 22.4969C48.3 22.4969 50.4563 22.5688 52.5406 22.7125C53.8344 24.5813 54.9844 26.45 56.0625 28.3188C57.2125 30.2594 58.2188 32.2 59.1532 34.1406C58.2188 36.0813 57.2125 38.0219 56.0625 39.9625C54.9844 41.8313 53.7625 43.7 52.5406 45.5688C50.3844 45.7125 48.2281 45.7844 46 45.7844C43.7 45.7844 41.5438 45.7125 39.4594 45.5688C38.1657 43.7 37.0156 41.8313 35.9375 39.9625C34.7875 38.0219 33.7813 36.0813 32.8469 34.1406ZM60.95 30.2594L59.0094 26.6656C58.2906 25.4438 57.6438 24.2938 56.8531 23.1438C59.0813 23.4313 61.1657 23.7906 63.1782 24.2219C62.5313 26.2344 61.8125 28.2469 60.95 30.2594ZM60.95 38.0219C61.8125 40.0344 62.5313 42.0469 63.1782 43.9875C61.1657 44.4188 59.0813 44.7781 56.8531 45.0656C57.5719 43.9156 58.2906 42.7656 59.0094 41.5438C59.6563 40.4656 60.3032 39.2438 60.95 38.0219ZM62.6031 62.9625C62.0281 63.3219 61.3094 63.4656 60.5188 63.4656C56.9969 63.4656 52.6125 60.5906 48.3 56.2781C50.3844 54.05 52.3969 51.5344 54.4094 48.7313C57.7875 48.4438 61.0219 47.9406 64.0406 47.2219C64.4 48.5156 64.6157 49.8094 64.8313 51.1031C65.8375 57.2125 65.0469 61.5969 62.6031 62.9625ZM66.3407 25.0844C74.3907 27.3844 79.2063 30.9063 79.2063 34.1406C79.2063 36.9438 75.9 39.7469 70.0782 41.975C68.9282 42.4063 67.6344 42.8375 66.3407 43.1969C65.4063 40.25 64.2563 37.2313 62.8188 34.1406C64.2563 31.05 65.4782 28.0313 66.3407 25.0844ZM60.5907 4.81563C61.3813 4.81563 62.0281 4.95938 62.675 5.31876C65.0469 6.68438 65.9094 10.9969 64.9032 17.1781C64.6875 18.4 64.4 19.6938 64.1125 21.0594C61.0938 20.4125 57.8594 19.9094 54.4813 19.55C52.5407 16.7469 50.4563 14.2313 48.3719 12.0031C52.6844 7.76251 57.0688 4.81563 60.5907 4.81563ZM50.025 19.2625C48.7313 19.1906 47.3657 19.1906 46 19.1906C44.6344 19.1906 43.2688 19.1906 41.975 19.2625C43.2688 17.5375 44.6344 15.9563 46 14.4469C47.3657 15.9563 48.7313 17.6094 50.025 19.2625ZM29.3969 5.31876C29.9719 4.95938 30.6906 4.81563 31.4813 4.81563C35.0031 4.81563 39.3875 7.69063 43.7 12.0031C41.6156 14.2313 39.6031 16.7469 37.5906 19.55C34.2125 19.8375 30.9781 20.3406 27.9594 21.0594C27.6 19.7656 27.3844 18.4719 27.1688 17.1781C26.1625 11.0688 26.9531 6.75626 29.3969 5.31876ZM25.6594 43.1969C17.6094 40.8969 12.7938 37.375 12.7938 34.1406C12.7938 31.3375 16.1 28.5344 21.9219 26.3063C23.0719 25.875 24.3657 25.4438 25.6594 25.0844C26.5938 28.0313 27.7438 31.05 29.1813 34.1406C27.7438 37.2313 26.5219 40.3219 25.6594 43.1969ZM27.1688 51.1031C27.3844 49.8813 27.6719 48.5875 27.9594 47.2219C30.9781 47.8688 34.2125 48.3719 37.5906 48.7313C39.5313 51.5344 41.6156 54.05 43.7 56.2781C39.3875 60.5188 35.0031 63.4656 31.4813 63.4656C30.6906 63.4656 30.0438 63.3219 29.3969 62.9625C26.9531 61.5969 26.1625 57.2125 27.1688 51.1031ZM24.15 80.7156C25.7313 78.775 25.8032 76.6187 24.9406 74.4625C24.0781 72.3062 22.2813 71.3 20.0531 71.2281C17.3938 71.1562 14.6625 71.2281 12.0031 71.2281H11.5V89.8437H13.6563V82.8H17.0344C17.4656 82.8 17.825 82.9438 18.0406 83.3031L22.3531 89.9875C22.425 90.1312 22.6406 90.3469 22.7844 90.3469H25.5875C23.8625 87.6875 22.2094 85.1719 20.4844 82.5844C21.9938 82.3687 23.2875 81.8656 24.15 80.7156ZM13.6563 80.5719V73.4562H14.4469C16.1 73.4562 17.825 73.3844 19.4781 73.5281C21.4188 73.6 22.7844 75.1094 22.7844 77.05C22.7844 78.9906 21.2031 80.5 19.2625 80.5719C17.5375 80.6437 15.8125 80.5719 13.6563 80.5719ZM41.4719 81.5063C40.3219 76.475 35.7219 75.1813 32.2 76.7625C29.4688 77.9844 28.2469 80.3563 28.175 83.3031C28.1031 85.5313 28.75 87.5438 30.475 89.0531C32.4156 90.7781 34.7875 90.9937 37.2313 90.5625C38.5969 90.275 39.8188 89.6281 40.7531 88.6219C40.3938 88.1187 40.0344 87.6156 39.675 87.1844C37.6625 88.9094 35.4344 89.4844 32.9907 88.3344C31.4094 87.5438 30.6188 85.6031 30.475 84.1656H41.6157V83.2313C41.6875 82.5844 41.6157 82.0094 41.4719 81.5063ZM30.6188 82.6562C30.4031 80.5 32.5594 78.2 34.9313 78.2C37.6625 78.1281 39.3875 79.7812 39.4594 82.6562H30.6188ZM52.6844 76.4031C51.6063 76.1875 50.4563 76.1156 49.3781 76.1875C47.6531 76.3312 46.1438 77.1219 44.9219 78.4156C45.2813 78.9188 45.5688 79.4219 46 79.9969C46.1438 79.8531 46.2875 79.7094 46.4313 79.6375C47.5813 78.5594 48.9469 77.9844 50.6 78.1281C51.8938 78.2 53.1157 78.6312 53.475 79.925C53.7625 80.9312 53.6907 82.0094 53.7625 83.0875C53.5469 83.0875 53.475 83.0156 53.4032 82.9438C51.6782 81.5063 49.7375 81.2187 47.6532 81.7219C45.7125 82.225 44.4907 83.7344 44.3469 85.675C44.2031 87.9031 45.2094 89.5562 47.15 90.3469C48.3719 90.85 49.7375 90.85 51.0313 90.5625C52.0375 90.3469 52.4688 89.7719 53.9063 88.9813V89.9156H55.9188C55.9188 87.0406 55.9907 83.5187 55.9188 80.2125C55.9188 78.1281 54.6969 76.8344 52.6844 76.4031ZM53.6906 85.4594C53.6188 85.675 53.6906 85.8906 53.6906 86.1063C53.6906 87.6156 53.3313 88.1187 51.8938 88.6938C50.8875 89.0531 49.8094 89.1969 48.7313 88.8375C47.5094 88.4781 46.6469 87.4 46.6469 86.1781C46.575 84.9562 47.3657 83.7344 48.5875 83.375C50.2407 82.8 51.75 83.1594 53.1157 84.1656C53.5469 84.525 53.8344 84.8844 53.6906 85.4594ZM64.9032 78.3438C66.7719 77.7687 68.4969 78.1281 69.7906 79.7094L70.0063 79.8531C70.5094 79.4219 70.9407 78.9906 71.5157 78.4875C71.3 78.2719 71.2282 78.1281 71.0844 77.9125C69 75.6844 64.9032 75.3969 62.3875 77.1938C58.8657 79.7813 58.9375 84.8125 60.6625 87.4719C62.3157 89.9875 64.6875 90.85 67.4907 90.4906C69.1438 90.275 70.5094 89.4844 71.5875 88.1187C71.0844 87.6875 70.5813 87.2562 70.0782 86.7531C69.9344 86.8969 69.8625 86.9687 69.7906 87.1125C67.85 89.2687 64.6157 89.0531 62.8907 86.7531C61.8844 85.3875 61.6688 83.8062 61.9563 82.225C62.1 80.4281 63.0344 78.9906 64.9032 78.3438ZM79.8531 88.1187C79.7094 88.1906 79.6375 88.2625 79.6375 88.2625C79.0625 88.6938 78.4875 88.7656 77.8407 88.55C77.1938 88.2625 77.1219 87.6875 77.05 87.1125V78.9188C77.05 78.775 77.05 79.0625 77.1219 78.3438H79.8531V76.1875H76.9781V72.5938H74.8219V76.475H72.9532C72.8094 76.475 72.5938 76.6188 72.5938 76.7625C72.5219 77.2656 72.5938 77.625 72.5938 78.3438H74.8938V87.5438C74.8938 88.6938 75.1813 89.7 76.1875 90.275C77.2656 90.9219 79.35 90.7781 80.2844 89.9875C80.4281 89.9156 80.5 89.6281 80.5 89.5562C80.2844 89.125 80.0688 88.6219 79.8531 88.1187Z" fill="#61DAFB"/>
</svg>
