<svg width="67" height="67" viewBox="0 0 67 67" fill="none" xmlns="http://www.w3.org/2000/svg">
<g clip-path="url(#clip0_395_23)">
<path d="M11.8663 24.6016H64.0373V63.1632H11.8663V24.6016Z" fill="white"/>
<path d="M0.785156 33.4529V66.1677H66.2148V0.738045H0.785156V33.4529ZM53.511 30.8357C55.0781 31.1994 56.5024 32.019 57.6043 33.1912C58.2109 33.8227 58.7382 34.5258 59.1746 35.2849C59.1746 35.3687 56.348 37.2792 54.6259 38.347C54.5631 38.3889 54.3119 38.1167 54.0345 37.7032C53.7201 37.1607 53.2734 36.7068 52.7361 36.3837C52.1988 36.0606 51.5884 35.8788 50.9619 35.8555C48.978 35.7194 47.7009 36.761 47.7113 38.4727C47.6949 38.8988 47.7925 39.3216 47.994 39.6975C48.4284 40.603 49.2398 41.1422 51.7837 42.2414C56.4684 44.2566 58.4732 45.5862 59.719 47.4758C61.1113 49.5695 61.4202 52.9509 60.478 55.453C59.4311 58.1748 56.8662 60.0226 53.2388 60.635C51.5821 60.8248 49.9081 60.8072 48.2557 60.5826C45.7231 60.1652 43.3903 58.9492 41.5976 57.1123C40.9956 56.4475 39.8231 54.7149 39.8964 54.5893C40.0875 54.4474 40.2887 54.3197 40.4984 54.2072L42.9219 52.8672L44.801 51.7784L45.1936 52.3594C45.8561 53.3072 46.6993 54.1148 47.6747 54.7359C49.7684 55.8351 52.6264 55.6833 54.0397 54.4113C54.5142 53.9452 54.8102 53.3275 54.8762 52.6656C54.9422 52.0038 54.774 51.3397 54.4009 50.7891C53.8774 50.0616 52.8305 49.4491 49.9045 48.1719C46.5284 46.7168 45.0732 45.8165 43.7437 44.3823C42.9137 43.4358 42.3009 42.3192 41.9483 41.1108C41.6853 39.7302 41.6464 38.3162 41.8331 36.9233C42.5293 33.6623 44.9737 31.3853 48.5436 30.7101C50.1968 30.5055 51.8715 30.5514 53.511 30.8462V30.8357ZM38.1534 33.5785V36.2585H29.658V60.457H23.6332V36.2533H15.1169V33.6361C15.0903 32.7336 15.1113 31.8303 15.1797 30.9299C15.2216 30.8828 20.4141 30.8828 26.6953 30.8828H38.122L38.1534 33.5785Z" fill="#007ACC"/>
</g>
<defs>
<clipPath id="clip0_395_23">
<rect width="67" height="67" fill="white"/>
</clipPath>
</defs>
</svg>
