<svg width="191" height="191" viewBox="0 0 191 191" fill="none" xmlns="http://www.w3.org/2000/svg">
<path d="M133.154 8.73824H122.136L133.594 21.1726V27.0921H109.994V20.1609H121.451L109.994 7.72653V1.80106H133.154V8.73824ZM105.314 8.73824H94.2958L105.754 21.1726V27.0921H82.1524V20.1609H93.6109L82.1524 7.72653V1.80106H105.314V8.73824ZM77.7474 9.02175H65.8577V19.8714H77.7474V27.0921H57.4059V1.80106H77.7474V9.02175Z" fill="white"/>
<path d="M41.2038 174.147L29.1215 38.6372H161.877L149.784 174.125L95.4179 189.199L41.2038 174.147Z" fill="#1572B6"/>
<path d="M95.5015 177.678L139.43 165.499L149.765 49.7182H95.5015V177.678Z" fill="#33A9DC"/>
<path d="M95.5 98.8127H117.492L119.012 81.7943H95.5V65.1743H137.175L136.777 69.6329L132.693 115.431H95.5V98.8127Z" fill="white"/>
<path d="M95.6 141.976L95.5269 141.997L77.0178 136.998L75.833 123.743H59.1518L61.4811 149.838L95.5239 159.288L95.6015 159.266L95.6 141.976Z" fill="#EBEBEB"/>
<path d="M116.08 114.728L114.078 136.986L95.5418 141.989V159.281L129.613 149.838L129.864 147.03L132.755 114.728H116.08Z" fill="white"/>
<path d="M95.5582 65.1743V81.7928H55.4139L55.0796 78.0578L54.3231 69.6329L53.9247 65.1743H95.5582ZM95.5 98.8142V115.434H77.2252L76.8924 111.699L76.1344 103.273L75.736 98.8142H95.5Z" fill="#EBEBEB"/>
</svg>
