<svg width="177" height="177" viewBox="0 0 177 177" fill="none" xmlns="http://www.w3.org/2000/svg">
<path d="M105.643 76.9894C101.858 76.9894 99.0398 78.8479 99.0398 83.3213C99.0398 86.6913 100.897 89.031 105.439 89.031C109.289 89.031 111.905 86.7618 111.905 83.1817C111.905 79.1245 109.564 76.9894 105.643 76.9894ZM98.0774 108.573C97.1813 109.672 96.288 110.841 96.288 112.219C96.288 114.97 99.7948 115.797 104.614 115.797C108.603 115.797 114.039 115.517 114.039 111.807C114.039 109.602 111.423 109.466 108.119 109.259L98.0774 108.573ZM118.439 77.1969C119.677 78.7802 120.986 80.9816 120.986 84.1469C120.986 91.7828 115 96.2548 106.333 96.2548C104.129 96.2548 102.133 95.981 100.896 95.6367L98.625 99.2831L105.366 99.6938C117.269 100.453 124.286 100.797 124.286 109.945C124.286 117.858 117.339 122.328 105.366 122.328C92.9126 122.328 88.1667 119.162 88.1667 113.729C88.1667 110.632 89.544 108.985 91.9515 106.71C89.6795 105.751 88.9245 104.032 88.9245 102.173C88.9245 100.659 89.6809 99.2831 90.9199 97.975C92.1589 96.6696 93.5348 95.3601 95.1845 93.8473C91.8132 92.1962 89.2689 88.6189 89.2689 83.526C89.2689 75.6149 94.4973 70.1819 105.023 70.1819C107.982 70.1819 109.773 70.4543 111.354 70.8705H124.771V76.717L118.439 77.1969ZM136.875 64.6962C132.952 64.6962 130.681 62.4243 130.681 58.5012C130.681 54.5837 132.952 52.4487 136.875 52.4487C140.866 52.4487 143.135 54.5823 143.135 58.5012C143.136 62.4243 140.866 64.6962 136.875 64.6962ZM127.997 106.042V100.609L131.508 100.128C132.471 99.9898 132.608 99.7837 132.608 98.7494V78.523C132.608 77.768 132.403 77.284 131.713 77.0793L127.997 75.7712L128.754 70.2012H142.998V98.7508C142.998 99.8542 143.064 99.9898 144.099 100.129L147.608 100.611V106.044L127.997 106.042ZM174.815 103.374C171.855 104.816 167.522 106.125 163.598 106.125C155.412 106.125 152.317 102.826 152.317 95.0476V77.0226C152.317 76.6119 152.317 76.3354 151.765 76.3354H146.95V70.2123C153.007 69.5223 155.413 66.4953 156.169 58.9963H162.707V68.7686C162.707 69.2485 162.707 69.4573 163.258 69.4573H172.958V76.3368H162.707V92.7784C162.707 96.837 163.671 98.4189 167.385 98.4189C169.314 98.4189 171.307 97.939 172.958 97.3195L174.815 103.374Z" fill="white"/>
<path d="M72.8742 85.3195L41.4166 53.8633C40.5466 52.9935 39.3668 52.5049 38.1366 52.5049C36.9064 52.5049 35.7265 52.9935 34.8565 53.8633L28.3241 60.3957L36.6086 68.6815C37.5827 68.3503 38.6302 68.2986 39.6323 68.5322C40.6343 68.7659 41.5509 69.2756 42.2781 70.0035C43.0096 70.7356 43.5204 71.6588 43.752 72.6675C43.9835 73.6762 43.9266 74.7297 43.5876 75.7076L51.5734 83.6933C52.7536 83.2821 54.0386 83.284 55.2177 83.6987C56.3967 84.1134 57.4 84.9164 58.0629 85.9759C58.7258 87.0355 59.0092 88.2889 58.8665 89.5306C58.7238 90.7723 58.1635 91.9287 57.2775 92.8102C56.3755 93.714 55.1881 94.2771 53.9175 94.4037C52.6469 94.5302 51.3718 94.2124 50.3092 93.5044C49.2467 92.7963 48.4624 91.7418 48.09 90.5205C47.7177 89.2991 47.7802 87.9865 48.267 86.8061L40.8192 79.3582L40.8178 98.9582C41.604 99.3465 42.2863 99.9164 42.8084 100.621C43.3304 101.325 43.6772 102.144 43.8199 103.009C43.9626 103.874 43.8972 104.761 43.6291 105.596C43.361 106.43 42.8979 107.189 42.2781 107.81C41.7002 108.387 41.0012 108.83 40.2317 109.104C39.4621 109.379 38.6412 109.48 37.828 109.399C37.0149 109.318 36.2298 109.058 35.5295 108.637C34.8291 108.216 34.231 107.644 33.7782 106.964C33.3254 106.284 33.0292 105.512 32.911 104.703C32.7928 103.895 32.8555 103.07 33.0947 102.289C33.3338 101.507 33.7434 100.789 34.2939 100.185C34.8444 99.5809 35.5221 99.1067 36.2781 98.7964V79.0153C35.6039 78.7392 34.9911 78.3323 34.475 77.8181C33.9589 77.3039 33.5498 76.6926 33.2712 76.0194C32.9926 75.3463 32.8501 74.6246 32.8519 73.8961C32.8536 73.1676 32.9997 72.4467 33.2815 71.7749L25.1146 63.6052L3.54412 85.1743C3.11301 85.6053 2.77102 86.117 2.53769 86.6801C2.30436 87.2433 2.18427 87.8469 2.18427 88.4564C2.18427 89.066 2.30436 89.6696 2.53769 90.2328C2.77102 90.7959 3.11301 91.3076 3.54412 91.7385L35.0017 123.195C35.8722 124.065 37.0525 124.553 38.2831 124.553C39.5138 124.553 40.6941 124.065 41.5646 123.195L72.8742 91.8824C73.3053 91.4515 73.6472 90.94 73.8805 90.3769C74.1139 89.8139 74.2339 89.2104 74.2339 88.6009C74.2339 87.9915 74.1139 87.388 73.8805 86.825C73.6472 86.2619 73.3053 85.7504 72.8742 85.3195Z" fill="#F34F29"/>
</svg>
