<svg width="133" height="188" viewBox="0 0 133 188" fill="none" xmlns="http://www.w3.org/2000/svg">
<path d="M12.0645 172.091L0 36.774H132.567L120.491 172.07L66.2025 187.119L12.0645 172.091Z" fill="#E44D26"/>
<path d="M66.2836 175.615L110.15 163.453L120.471 47.8395H66.2836V175.615Z" fill="#F16529"/>
<path d="M66.2836 98.0265H44.3221L42.8071 81.03H66.2836V64.434H24.6691L25.0651 68.8875L29.1451 114.621H66.2836V98.0265ZM66.2836 141.126L66.2101 141.145L47.7286 136.153L46.5466 122.919H29.8861L32.2111 148.977L66.2071 158.415L66.2836 158.392V141.126Z" fill="#EBEBEB"/>
<path d="M12.3345 0H20.7675V8.334H28.4835V0H36.918V25.233H28.4835V16.7835H20.769V25.233H12.3345V0ZM48.0075 8.3685H40.5825V0H63.87V8.3685H56.442V25.233H48.0075V8.3685ZM67.566 0H76.359L81.7695 8.8665L87.174 0H95.9715V25.233H87.57V12.726L81.7695 21.6975H81.6225L75.8175 12.726V25.233H67.5645V0H67.566ZM100.17 0H108.606V16.893H120.466V25.2345H100.17V0Z" fill="white"/>
<path d="M66.2265 98.0265V114.621H86.6625L84.7365 136.144L66.2265 141.141V158.406L100.249 148.977L100.498 146.172L104.399 102.481L104.803 98.0265H100.33H66.2265ZM66.2265 64.434V81.03H106.314L106.645 77.2995L107.403 68.8875L107.8 64.434H66.2265Z" fill="white"/>
</svg>
