<svg width="148" height="148" viewBox="0 0 148 148" fill="none" xmlns="http://www.w3.org/2000/svg">
<path d="M1.62799 1.62799H146.372V146.373H1.62799V1.62799Z" fill="#F0DB4F"/>
<path d="M134.526 111.851C133.466 105.248 129.16 99.7011 116.405 94.5292C111.975 92.4931 107.035 91.035 105.563 87.6773C105.041 85.7232 104.971 84.6225 105.302 83.4396C106.251 79.6009 110.833 78.4042 114.465 79.5049C116.804 80.2889 119.019 82.0914 120.354 84.967C126.6 80.9225 126.587 80.9491 130.949 78.1694C129.352 75.6939 128.5 74.5515 127.455 73.4924C123.698 69.2964 118.579 67.1354 110.393 67.3007L106.129 67.8522C102.043 68.8848 98.1483 71.0296 95.8647 73.9052C89.0127 81.6798 90.9668 95.2866 99.3045 100.886C107.519 107.051 119.585 108.454 121.126 114.219C122.626 121.277 115.939 123.562 109.293 122.75C104.395 121.731 101.671 119.242 98.7264 114.715C93.3059 117.852 93.3059 117.852 87.7328 121.057C89.0544 123.947 90.443 125.254 92.6584 127.758C103.143 138.393 129.381 137.87 134.087 121.773C134.278 121.22 135.545 117.534 134.526 111.851ZM80.3154 68.1529H66.7769L66.7214 103.155C66.7214 110.599 67.1064 117.423 65.8958 119.515C63.9152 123.629 58.7826 123.119 56.4435 122.321C54.0628 121.151 52.8522 119.487 51.4496 117.135C51.0646 116.46 50.7756 115.937 50.6784 115.897L39.6709 122.638C41.5013 126.394 44.1976 129.655 47.6514 131.773C52.8106 134.87 59.7446 135.819 66.9966 134.154C71.7164 132.779 75.7887 129.931 77.9208 125.597C81.0034 119.914 80.342 113.035 80.3143 105.427C80.3836 93.0145 80.3154 80.6045 80.3154 68.1529Z" fill="#323330"/>
</svg>
