<svg width="173" height="173" viewBox="0 0 173 173" fill="none" xmlns="http://www.w3.org/2000/svg">
<path d="M86.5 76.7688C93.4419 76.7688 99.0695 71.1412 99.0695 64.1992C99.0695 57.2573 93.4419 51.6297 86.5 51.6297C79.558 51.6297 73.9304 57.2573 73.9304 64.1992C73.9304 71.1412 79.558 76.7688 86.5 76.7688Z" fill="#61DAFB"/>
<path d="M86.5 110.423C96.3664 120.019 106.098 125.695 113.937 125.695C116.505 125.695 118.937 125.155 120.965 123.938C127.993 119.884 130.561 109.747 128.128 95.2852C127.723 92.7172 127.182 90.1493 126.506 87.4461C129.209 86.6352 131.642 85.8243 134.075 85.0133C147.726 79.7422 155.295 72.4438 155.295 64.4696C155.295 56.3602 147.726 49.0618 134.075 43.9258C131.642 42.9797 129.209 42.1688 126.506 41.493C127.182 38.7899 127.723 36.2219 128.128 33.6539C130.426 18.9219 127.858 8.65004 120.83 4.59535C118.802 3.37894 116.37 2.83832 113.802 2.83832C106.098 2.83832 96.2312 8.51488 86.3648 18.111C76.6336 8.51488 66.9023 2.83832 59.0633 2.83832C56.4953 2.83832 54.0625 3.37894 52.0351 4.59535C45.007 8.65004 42.439 18.7868 44.8719 33.2485C45.2773 35.8164 45.8179 38.3844 46.4937 41.0875C43.7906 41.8985 41.3578 42.7094 38.925 43.5204C25.2742 48.7914 17.7054 56.0899 17.7054 64.0641C17.7054 72.1735 25.2742 79.4719 38.925 84.6078C41.3578 85.5539 43.7906 86.3649 46.4937 87.0407C45.8179 89.7438 45.2773 92.3118 44.8719 94.8797C42.5742 109.341 45.1422 119.613 52.0351 123.533C54.0625 124.749 56.4953 125.29 59.0633 125.29C66.9023 125.56 76.6336 119.884 86.5 110.423ZM78.9312 92.1766C81.364 92.3118 83.932 92.3118 86.5 92.3118C89.0679 92.3118 91.6359 92.3118 94.0687 92.1766C91.6359 95.4203 89.0679 98.3938 86.5 101.232C83.932 98.3938 81.364 95.4203 78.9312 92.1766ZM62.1719 78.2555C63.5234 80.5532 64.7398 82.7157 66.2265 84.8782C62.0367 84.3375 58.1172 83.6618 54.3328 82.8508C55.5492 79.2016 56.9008 75.4172 58.5226 71.6329C59.6039 73.7953 60.8203 76.093 62.1719 78.2555ZM54.3328 45.6828C58.1172 44.8719 62.0367 44.1961 66.2265 43.6555C64.875 45.818 63.5234 47.9805 62.1719 50.2782C60.8203 52.5758 59.6039 54.7383 58.5226 57.036C56.7656 53.1164 55.414 49.3321 54.3328 45.6828ZM61.7664 64.1993C63.5234 60.55 65.4156 56.9008 67.5781 53.2516C69.6054 49.7375 71.9031 46.2235 74.2008 42.7094C78.2554 42.4391 82.3101 42.3039 86.5 42.3039C90.825 42.3039 94.8797 42.4391 98.7992 42.7094C101.232 46.2235 103.395 49.7375 105.422 53.2516C107.584 56.9008 109.477 60.55 111.234 64.1993C109.477 67.8485 107.584 71.4977 105.422 75.1469C103.395 78.661 101.097 82.175 98.7992 85.6891C94.7445 85.9594 90.6898 86.0946 86.5 86.0946C82.175 86.0946 78.1203 85.9594 74.2008 85.6891C71.7679 82.175 69.6054 78.661 67.5781 75.1469C65.4156 71.4977 63.5234 67.8485 61.7664 64.1993ZM114.612 56.9008L110.963 50.143C109.612 47.8453 108.395 45.6828 106.909 43.5204C111.098 44.061 115.018 44.7368 118.802 45.5477C117.586 49.3321 116.234 53.1164 114.612 56.9008ZM114.612 71.4977C116.234 75.2821 117.586 79.0664 118.802 82.7157C115.018 83.5266 111.098 84.2024 106.909 84.743C108.26 82.5805 109.612 80.418 110.963 78.1204C112.18 76.093 113.396 73.7954 114.612 71.4977ZM117.721 118.397C116.64 119.073 115.288 119.343 113.802 119.343C107.179 119.343 98.9343 113.937 90.825 105.827C94.7445 101.638 98.5289 96.9071 102.313 91.636C108.666 91.0954 114.748 90.1493 120.424 88.7977C121.1 91.2305 121.505 93.6633 121.911 96.0961C123.803 107.584 122.316 115.829 117.721 118.397ZM124.749 47.1696C139.887 51.4946 148.942 58.1172 148.942 64.1993C148.942 69.4704 142.725 74.7414 131.777 78.9313C129.615 79.7422 127.182 80.5532 124.749 81.2289C122.992 75.6875 120.83 70.011 118.127 64.1993C120.83 58.3875 123.127 52.711 124.749 47.1696ZM113.937 9.05551C115.423 9.05551 116.64 9.32582 117.856 10.0016C122.316 12.5696 123.938 20.6789 122.046 32.3024C121.641 34.6 121.1 37.0328 120.559 39.6008C114.883 38.3844 108.801 37.4383 102.448 36.7625C98.7992 31.4914 94.8797 26.761 90.9601 22.5711C99.0695 14.5969 107.314 9.05551 113.937 9.05551ZM94.0687 36.2219C91.6359 36.0868 89.0679 36.0868 86.5 36.0868C83.932 36.0868 81.364 36.0868 78.9312 36.2219C81.364 32.9782 83.932 30.0047 86.5 27.1664C89.0679 30.0047 91.6359 33.1133 94.0687 36.2219ZM55.2789 10.0016C56.3601 9.32582 57.7117 9.05551 59.1984 9.05551C65.8211 9.05551 74.0656 14.4618 82.175 22.5711C78.2554 26.761 74.4711 31.4914 70.6867 36.7625C64.3343 37.3032 58.2523 38.2493 52.5758 39.6008C51.9 37.168 51.4945 34.7352 51.089 32.3024C49.1968 20.8141 50.6836 12.7047 55.2789 10.0016ZM48.2508 81.2289C33.1133 76.9039 24.0578 70.2813 24.0578 64.1993C24.0578 58.9282 30.275 53.6571 41.2226 49.4672C43.3851 48.6563 45.8179 47.8454 48.2508 47.1696C50.0078 52.711 52.1703 58.3875 54.8734 64.1993C52.1703 70.011 49.8726 75.8227 48.2508 81.2289ZM51.089 96.0961C51.4945 93.7985 52.0351 91.3657 52.5758 88.7977C58.2523 90.0141 64.3343 90.9602 70.6867 91.636C74.3359 96.9071 78.2554 101.638 82.175 105.827C74.0656 113.802 65.8211 119.343 59.1984 119.343C57.7117 119.343 56.4953 119.073 55.2789 118.397C50.6836 115.829 49.1968 107.584 51.089 96.0961ZM45.4125 151.781C48.3859 148.131 48.5211 144.077 46.8992 140.022C45.2773 135.967 41.8984 134.075 37.7086 133.94C32.7078 133.805 27.5719 133.94 22.5711 133.94H21.625V168.945H25.6797V155.7H32.032C32.8429 155.7 33.5187 155.97 33.9242 156.646L42.0336 169.216C42.1687 169.486 42.5742 169.891 42.8445 169.891H48.1156C44.8718 164.891 41.7633 160.16 38.5195 155.295C41.3578 154.889 43.7906 153.943 45.4125 151.781ZM25.6797 151.51V138.13H27.1664C30.275 138.13 33.5187 137.995 36.6273 138.265C40.2765 138.4 42.8445 141.238 42.8445 144.888C42.8445 148.537 39.8711 151.375 36.2218 151.51C32.9781 151.645 29.7344 151.51 25.6797 151.51ZM77.9851 153.267C75.8226 143.806 67.1726 141.373 60.55 144.347C55.414 146.645 53.1164 151.105 52.9812 156.646C52.8461 160.836 54.0625 164.62 57.3062 167.459C60.9554 170.702 65.4156 171.108 70.0109 170.297C72.5789 169.756 74.8765 168.54 76.6336 166.648C75.9578 165.702 75.282 164.756 74.6062 163.945C70.8218 167.188 66.632 168.27 62.0367 166.107C59.0633 164.62 57.5765 160.971 57.3062 158.268H78.2554V156.511C78.3906 155.295 78.2554 154.213 77.9851 153.267ZM57.5765 155.43C57.1711 151.375 61.2258 147.05 65.6859 147.05C70.8218 146.915 74.0656 150.023 74.2008 155.43H57.5765ZM99.0695 143.671C97.0422 143.266 94.8797 143.131 92.8523 143.266C89.6086 143.536 86.7703 145.023 84.4726 147.456C85.1484 148.402 85.689 149.348 86.5 150.429C86.7703 150.159 87.0406 149.888 87.3109 149.753C89.4734 147.726 92.0414 146.645 95.15 146.915C97.5828 147.05 99.8804 147.861 100.556 150.294C101.097 152.186 100.962 154.213 101.097 156.241C100.691 156.241 100.556 156.106 100.421 155.97C97.1773 153.267 93.5281 152.727 89.6086 153.673C85.9594 154.619 83.6617 157.457 83.3914 161.106C83.1211 165.296 85.0133 168.405 88.6625 169.891C90.9601 170.838 93.5281 170.838 95.9609 170.297C97.8531 169.891 98.664 168.81 101.367 167.323V169.081H105.152C105.152 163.674 105.287 157.052 105.152 150.834C105.152 146.915 102.854 144.482 99.0695 143.671ZM100.962 160.701C100.827 161.106 100.962 161.512 100.962 161.917C100.962 164.756 100.286 165.702 97.5828 166.783C95.6906 167.459 93.6633 167.729 91.6359 167.053C89.3383 166.377 87.7164 164.35 87.7164 162.052C87.5812 159.755 89.0679 157.457 91.3656 156.781C94.4742 155.7 97.3125 156.376 99.8804 158.268C100.691 158.944 101.232 159.62 100.962 160.701ZM122.046 147.32C125.56 146.239 128.804 146.915 131.237 149.888L131.642 150.159C132.588 149.348 133.399 148.537 134.48 147.591C134.075 147.185 133.94 146.915 133.67 146.509C129.75 142.32 122.046 141.779 117.316 145.158C110.693 150.023 110.828 159.484 114.072 164.485C117.18 169.216 121.641 170.838 126.912 170.162C130.02 169.756 132.588 168.27 134.616 165.702C133.67 164.891 132.723 164.08 131.777 163.134C131.507 163.404 131.372 163.539 131.237 163.809C127.587 167.864 121.505 167.459 118.262 163.134C116.37 160.566 115.964 157.592 116.505 154.619C116.775 151.24 118.532 148.537 122.046 147.32ZM150.159 165.702C149.888 165.837 149.753 165.972 149.753 165.972C148.672 166.783 147.591 166.918 146.374 166.513C145.158 165.972 145.023 164.891 144.887 163.809V148.402C144.887 148.131 144.887 148.672 145.023 147.32H150.159V143.266H144.752V136.508H140.698V143.806H137.184C136.913 143.806 136.508 144.077 136.508 144.347C136.373 145.293 136.508 145.969 136.508 147.32H140.833V164.62C140.833 166.783 141.373 168.675 143.266 169.756C145.293 170.973 149.212 170.702 150.969 169.216C151.24 169.081 151.375 168.54 151.375 168.405C150.97 167.594 150.564 166.648 150.159 165.702Z" fill="#61DAFB"/>
</svg>
