<svg width="148" height="148" viewBox="0 0 148 148" fill="none" xmlns="http://www.w3.org/2000/svg">
<path d="M26.2122 54.3438H141.456V139.525H26.2122V54.3438Z" fill="white"/>
<path d="M1.73438 73.8959V146.162H146.266V1.63031H1.73438V73.8959ZM118.203 68.1147C121.665 68.918 124.811 70.7285 127.245 73.3178C128.585 74.7128 129.75 76.2659 130.714 77.9428C130.714 78.1278 124.47 82.3481 120.666 84.7069C120.528 84.7994 119.973 84.1981 119.36 83.2847C118.665 82.0864 117.679 81.0836 116.492 80.3699C115.305 79.6562 113.956 79.2547 112.573 79.2031C108.19 78.9025 105.369 81.2034 105.392 84.9844C105.356 85.9257 105.571 86.8597 106.017 87.69C106.976 89.6903 108.768 90.8812 114.388 93.3094C124.736 97.7609 129.165 100.698 131.917 104.872C134.992 109.497 135.674 116.966 133.593 122.493C131.281 128.506 125.615 132.587 117.602 133.94C113.942 134.359 110.245 134.32 106.595 133.824C101 132.902 95.8471 130.216 91.8872 126.158C90.5575 124.69 87.9675 120.863 88.1294 120.585C88.5515 120.272 88.9959 119.99 89.4591 119.741L94.8125 116.781L98.9634 114.376L99.8306 115.66C101.294 117.753 103.157 119.537 105.311 120.909C109.936 123.337 116.249 123.002 119.371 120.192C120.419 119.163 121.073 117.798 121.219 116.336C121.365 114.874 120.993 113.407 120.169 112.191C119.013 110.584 116.7 109.231 110.237 106.41C102.779 103.195 99.5647 101.207 96.6278 98.0384C94.7944 95.9478 93.4407 93.4812 92.6619 90.8119C92.0809 87.7622 91.995 84.6389 92.4075 81.5619C93.9453 74.3584 99.345 69.3287 107.231 67.8372C110.883 67.3853 114.582 67.4867 118.203 68.1378V68.1147ZM84.2791 74.1734V80.0934H65.5131V133.547H52.2047V80.0819H33.3925V74.3006C33.3339 72.307 33.3802 70.3116 33.5312 68.3228C33.6238 68.2188 45.0938 68.2188 58.9688 68.2188H84.2097L84.2791 74.1734Z" fill="#007ACC"/>
</svg>
