<svg width="79" height="79" viewBox="0 0 79 79" fill="none" xmlns="http://www.w3.org/2000/svg">
<g clip-path="url(#clip0_451_3)">
<path fill-rule="evenodd" clip-rule="evenodd" d="M0.929443 31.9301C0.929443 32.4033 1.06735 32.7156 1.14463 33.0191C1.6483 34.9931 2.73091 36.6872 4.01539 38.2325C5.84484 40.4347 8.08535 42.2075 10.3805 43.8746C12.3712 45.3203 14.4025 46.7337 16.4012 48.1686C16.7443 48.4149 17.0687 48.6983 17.4411 49.0005C17.1207 49.1755 16.8542 49.3296 16.577 49.4716C13.9395 50.8231 11.4018 52.3381 9.0627 54.1735C7.65297 55.28 6.28988 56.4558 5.32719 57.9923C3.77822 60.4637 3.22991 63.0967 4.38448 65.908C4.72159 66.7291 5.23591 67.4385 5.96143 67.9628C6.19661 68.1324 6.46043 68.3006 6.73558 68.3666C7.44045 68.5342 8.15864 68.6439 8.87216 68.7765L10.8928 68.7751C13.1273 68.5739 15.1613 67.8006 16.9994 66.5191C19.8722 64.5161 21.8076 61.8307 22.6397 58.384C23.2446 55.879 23.2693 53.3712 22.5564 50.8776C22.4882 50.6466 22.4095 50.4188 22.3206 50.1951C22.2339 49.971 22.132 49.7529 22.0121 49.4736L26.593 46.8124L26.6617 46.8717C26.5784 47.1469 26.4898 47.4215 26.4145 47.6995C25.8702 49.7078 25.5084 51.7512 25.6383 53.8356C25.7769 56.0567 26.3905 58.1357 27.6777 59.9913C28.7183 61.4921 31.198 61.548 32.3039 60.0417C32.6963 59.5067 33.0767 58.9474 33.3625 58.3504C34.1094 56.7923 34.8009 55.2066 35.5145 53.6317L35.639 53.3436C35.5877 54.0894 35.5278 54.7442 35.5005 55.3998C35.4578 56.4235 35.5171 57.4411 35.8636 58.415C36.16 59.2482 36.6644 59.8708 37.6091 59.9805C38.2553 60.0552 38.7703 59.7564 39.2453 59.3774C39.9812 58.79 40.5912 58.0574 41.0381 57.2244C42.3046 54.8748 43.6051 52.5393 44.753 50.1305C45.9948 47.5252 47.0808 44.8438 48.234 42.194L48.4245 41.7242C48.697 42.8058 48.8869 43.8652 49.2367 44.868C49.6431 46.0317 50.1461 47.1678 50.6937 48.2722C50.9529 48.7939 50.9229 49.1324 50.5638 49.5699C49.0608 51.4005 47.5838 53.2534 46.1054 55.1043C45.7783 55.5128 45.4525 55.9288 45.18 56.375C45.0147 56.6568 44.906 56.9688 44.8602 57.293C44.8144 57.5916 44.8847 57.8965 45.0565 58.1438C45.2283 58.3911 45.4881 58.5616 45.7816 58.6196C46.374 58.7485 46.9813 58.7922 47.5858 58.7495C49.6491 58.596 51.5225 57.8644 53.1787 56.6247C55.3246 55.0188 56.0135 52.8274 55.4938 50.2301C55.3533 49.5255 55.1048 48.8403 54.8629 48.1612C54.7543 47.855 54.747 47.6403 54.9449 47.3549C56.6604 44.8801 58.1261 42.2546 59.4892 39.5685C59.5431 39.4628 59.5984 39.3571 59.693 39.2441C60.1347 41.5661 60.7996 43.8039 61.9908 45.8345C61.3833 46.4261 60.7817 46.9625 60.2373 47.5534C59.0388 48.8551 57.9995 50.2685 57.4572 51.9922C57.224 52.7352 57.0448 53.4903 57.1487 54.2839C57.31 55.5162 58.3093 56.3171 59.5092 56.0365C62.0768 55.4361 64.2933 54.2139 65.9129 52.0487C67.0029 50.5909 67.1021 48.9648 66.6458 47.2613C66.5205 46.7983 66.3719 46.3426 66.212 45.8116C66.8456 45.6131 67.4632 45.3748 68.1021 45.2274C71.4192 44.4628 74.7004 44.5961 77.8969 45.8062C79.763 46.5129 81.2707 47.6955 82.1648 49.5557C83.2567 51.83 82.6531 53.9877 80.5312 55.4253C80.3333 55.5593 80.1068 55.6649 79.9429 55.8325C79.8904 55.894 79.8512 55.9658 79.8276 56.0435C79.8041 56.1211 79.7969 56.2028 79.8063 56.2835C79.8203 56.3663 80.0369 56.4699 80.1614 56.4686C80.859 56.4632 81.4246 56.0937 81.9676 55.7141C83.328 54.7631 84.3207 53.4836 84.5345 51.799L84.5765 51.6725L84.5252 50.5754C84.5045 50.5121 84.5405 50.4495 84.5359 50.4018C84.2467 47.9485 82.9496 46.0458 81.0628 44.5544C78.8776 42.828 76.2973 42.1173 73.5685 42.0049C71.3553 41.9087 69.1449 42.2524 67.0628 43.0165C66.4652 43.2352 65.8729 43.4943 65.272 43.7386C65.1914 43.5912 65.1048 43.4499 65.0335 43.3039C64.4166 42.0278 63.6691 40.8082 63.5038 39.345C63.3866 38.3058 63.2427 37.268 63.4872 36.2403C63.7224 35.2516 64.0288 34.2797 64.3173 33.3045C64.4659 32.8024 64.3613 32.521 63.8869 32.2949C63.7216 32.2116 63.5452 32.1531 63.3633 32.1213C62.1974 31.9503 61.0475 32.0479 59.9182 32.3797C59.5185 32.4975 59.228 32.7236 59.1394 33.1705C59.0888 33.427 58.9855 33.6726 58.9136 33.9257C58.6184 34.9776 58.4092 36.0498 57.9322 37.052C56.737 39.5658 55.3726 41.9847 53.9762 44.3861C53.8249 44.6452 53.6657 44.8996 53.4752 45.2139C52.9848 44.1775 52.4619 43.2473 52.3033 42.157C52.1241 40.924 51.9828 39.693 52.2866 38.4694C52.5125 37.5567 52.8076 36.6609 53.0794 35.7604C53.208 35.3323 53.1487 35.1075 52.765 34.8821C52.5711 34.7683 52.3519 34.6674 52.1334 34.6344C50.9379 34.4504 49.7164 34.5514 48.5664 34.9292C48.2047 35.0476 48.0148 35.2839 47.9042 35.6608C47.5791 36.7727 47.3019 37.9114 46.8456 38.9688C44.9975 43.2493 43.0961 47.5077 41.1967 51.7653C40.8003 52.6544 40.3359 53.5126 39.8889 54.3781C39.7756 54.5975 39.6104 54.7907 39.4692 54.9966C39.3559 54.8613 39.3119 54.7685 39.3126 54.6756C39.3159 54.1284 39.2513 53.5651 39.3546 53.036C39.6717 51.4361 40.0222 49.8431 40.4059 48.2581C40.719 46.9484 41.0834 45.6508 41.4305 44.3498C41.5471 43.9143 41.5491 43.5071 41.2393 43.141C40.719 42.5278 39.6317 42.3932 38.9868 42.8657L38.7017 43.0286L38.757 42.5642C38.8929 41.5688 38.9202 40.5767 38.6497 39.5961C38.3126 38.3738 37.4492 37.6705 36.194 37.7095C35.6091 37.7277 34.9948 37.8287 34.4532 38.044C32.1753 38.9459 30.4238 40.543 28.9328 42.4646C28.7946 42.643 28.6233 42.7925 28.4285 42.9047C26.5011 43.9843 24.5677 45.0504 22.635 46.1205L20.4838 47.3111C19.9068 46.7552 19.3825 46.1784 18.7876 45.6891C16.9708 44.1923 15.1247 42.7324 13.2952 41.2524C11.6736 39.9407 10.1027 38.5744 8.90081 36.8373C8.00674 35.545 7.43046 34.131 7.37516 32.5332C7.3052 30.4972 7.87682 28.6369 8.90281 26.9052C10.2153 24.6895 12.0054 22.9113 13.9734 21.3008C16.0554 19.598 18.3072 18.1523 20.641 16.8324C23.9062 14.9863 27.2646 13.3521 30.8655 12.2732C34.5578 11.1668 38.3039 10.5334 42.168 10.9749C43.687 11.1486 45.162 11.4999 46.5165 12.2504C47.5538 12.8245 48.4045 13.5763 48.8003 14.7514C49.1907 15.9077 49.1787 17.0794 48.9082 18.2539C48.3586 20.6324 47.0694 22.593 45.4472 24.3449C42.7863 27.2168 39.5404 29.172 35.8862 30.4636C33.7851 31.2071 31.5991 31.6782 29.3805 31.8655C27.5624 32.0196 25.7823 31.8568 24.0607 31.218C22.9208 30.7947 21.9282 30.1472 21.13 29.2077C20.9874 29.0394 20.8049 28.857 20.5391 29.0145C20.2786 29.1693 20.2326 29.4197 20.3199 29.6734C20.4658 30.0947 20.6004 30.5336 20.8275 30.9105C21.3985 31.8561 22.2313 32.5419 23.148 33.1301C24.9088 34.2615 26.8769 34.6418 28.9175 34.73C32.0141 34.8653 35.0354 34.3982 38.0141 33.5589C42.2666 32.3609 45.9642 30.2448 48.9295 26.9065C51.3986 24.1269 53.162 20.9898 53.5398 17.2019C53.7243 15.3531 53.5278 13.5419 52.671 11.8553C51.7417 10.028 50.264 8.66911 48.4972 7.7329C45.9242 6.36999 43.1474 5.57648 40.2813 5.57648H37.4099C33.9388 5.57648 30.5831 6.58133 27.3212 7.78002C24.8522 8.68795 22.4311 9.75943 20.0807 10.9453C14.9621 13.5291 10.1953 16.6447 6.27989 20.9286C4.32918 23.0628 2.67761 25.4178 1.72758 28.1907C1.44084 29.0186 1.19383 29.86 0.987405 30.7119M19.5344 54.9502C19.3126 57.9513 17.9661 60.3843 15.7656 62.355C14.5277 63.4628 13.108 64.2516 11.4544 64.5289C10.8548 64.6292 10.2413 64.6534 9.65964 64.4024C8.83019 64.0443 8.64431 63.3006 8.62832 62.5084C8.60367 61.2458 9.04138 60.1043 9.64165 59.018C10.4251 57.602 11.5737 56.5224 12.8002 55.5142C14.7323 53.9251 16.8282 52.5804 18.9748 51.311L19.1367 51.2437C19.4685 52.4821 19.6263 53.705 19.5344 54.9502ZM36.2953 41.9073C36.1387 42.8657 35.9428 43.8248 35.6657 44.7536C34.7077 47.9687 33.4771 51.0842 32.1467 54.158C31.9009 54.7267 31.5431 55.2456 31.232 55.7847C31.179 55.8676 31.1157 55.9432 31.0434 56.0095C30.6583 56.3938 30.2933 56.3737 30.0987 55.8709C29.8722 55.2867 29.733 54.6614 29.613 54.0429C29.5324 53.6276 29.5517 53.1915 29.5264 52.7662C29.5524 49.7415 30.4658 46.9928 32.0154 44.4339C32.6544 43.3786 33.3499 42.373 34.4125 41.7054C34.7431 41.4977 35.1007 41.3378 35.4751 41.2302C36.0414 41.0694 36.3892 41.3339 36.2953 41.9073ZM47.7303 56.6254L51.8403 51.7775C52.0115 53.5778 48.9822 57.1719 47.7303 56.6254ZM60.8569 53.3631C60.5665 53.5314 60.25 53.6525 59.9522 53.808C59.6797 53.9507 59.5898 53.8067 59.5818 53.5698C59.5778 53.4058 59.5987 53.2421 59.6437 53.0845C60.1987 51.1071 61.22 49.4191 62.7397 48.0461L62.8463 47.9909C63.5691 50.0336 62.7337 52.2769 60.8569 53.3631Z" fill="#CB6699"/>
</g>
<defs>
<clipPath id="clip0_451_3">
<rect width="79" height="79" fill="white"/>
</clipPath>
</defs>
</svg>
