<svg width="15" height="16" viewBox="0 0 15 16" fill="none" xmlns="http://www.w3.org/2000/svg">
<path fill-rule="evenodd" clip-rule="evenodd" d="M7.49994 0.629395C3.35838 0.629395 0 3.98703 0 8.12933C0 11.4431 2.14896 14.2543 5.12892 15.2461C5.50361 15.3157 5.64122 15.0834 5.64122 14.8853C5.64122 14.7065 5.63427 14.1157 5.63104 13.489C3.54455 13.9427 3.10427 12.6041 3.10427 12.6041C2.76311 11.7372 2.27154 11.5067 2.27154 11.5067C1.59095 11.0412 2.32283 11.0509 2.32283 11.0509C3.07583 11.1037 3.47252 11.8238 3.47252 11.8238C4.14143 12.9701 5.22703 12.6388 5.65501 12.4472C5.72232 11.9625 5.91669 11.6315 6.13118 11.4442C4.46534 11.2548 2.71405 10.6116 2.71405 7.73787C2.71405 6.91904 3.00715 6.25 3.48692 5.72465C3.40893 5.53587 3.15221 4.77306 3.55945 3.74C3.55945 3.74 4.18913 3.53843 5.62235 4.50878C6.22072 4.34248 6.86244 4.25889 7.49994 4.25604C8.13706 4.25889 8.77915 4.34223 9.37865 4.50853C10.8101 3.53819 11.4391 3.73975 11.4391 3.73975C11.8473 4.77269 11.5906 5.53563 11.5127 5.7244C11.9936 6.24975 12.2846 6.9188 12.2846 7.73762C12.2846 10.6182 10.5301 11.2524 8.86001 11.4382C9.12914 11.6709 9.36884 12.1274 9.36884 12.827C9.36884 13.8305 9.36014 14.6382 9.36014 14.8852C9.36014 15.0848 9.49527 15.3187 9.87531 15.245C12.8535 14.2522 15 11.4419 15 8.12933C14.9999 3.98728 11.6419 0.629395 7.49994 0.629395Z" fill="#FEFEFE"/>
<path d="M2.84064 11.3975C2.82412 11.4347 2.7655 11.4459 2.7121 11.4204C2.65745 11.3961 2.62702 11.3453 2.64466 11.3079C2.66081 11.2694 2.71955 11.2589 2.77382 11.2846C2.82847 11.309 2.85952 11.3603 2.84052 11.3976L2.84064 11.3975ZM3.14442 11.7364C3.10878 11.7696 3.03886 11.7542 2.99141 11.7016C2.94223 11.6495 2.93304 11.5795 2.96943 11.5459C3.00644 11.5128 3.07425 11.5285 3.12343 11.5807C3.17237 11.6336 3.18206 11.7029 3.14455 11.7365L3.14442 11.7364ZM3.44026 12.1682C3.39431 12.2003 3.31904 12.1703 3.27259 12.1036C3.22664 12.0368 3.22664 11.9567 3.27384 11.9248C3.32016 11.8928 3.39431 11.9217 3.4415 11.9878C3.4872 12.0555 3.4872 12.1357 3.44026 12.1682ZM3.84526 12.5856C3.80428 12.631 3.71659 12.6188 3.65251 12.5571C3.58706 12.4966 3.5688 12.4105 3.60991 12.3653C3.65164 12.3199 3.73969 12.3325 3.80415 12.3939C3.8696 12.4542 3.88935 12.5404 3.84551 12.5855L3.84526 12.5856ZM4.40414 12.828C4.38589 12.8867 4.30168 12.9134 4.21661 12.8883C4.13178 12.8626 4.07627 12.7939 4.09365 12.7346C4.11104 12.6753 4.19587 12.6476 4.28144 12.6743C4.36626 12.6999 4.42178 12.7682 4.40414 12.828ZM5.01804 12.8728C5.02015 12.9346 4.94812 12.9858 4.85907 12.987C4.76928 12.9892 4.69662 12.939 4.69575 12.8781C4.69575 12.8157 4.7663 12.7651 4.85597 12.7634C4.94501 12.7618 5.01817 12.8114 5.01817 12.8727L5.01804 12.8728ZM5.58909 12.7757C5.59978 12.8359 5.5378 12.8979 5.44925 12.9144C5.36231 12.9305 5.28159 12.893 5.27041 12.8333C5.25973 12.7714 5.32282 12.7095 5.40976 12.6934C5.49843 12.6782 5.57792 12.7144 5.58909 12.7757Z" fill="#FEFEFE"/>
</svg>
