<svg width="21" height="21" viewBox="0 0 21 21" fill="none" xmlns="http://www.w3.org/2000/svg">
<g clip-path="url(#clip0_513_3)">
<path fill-rule="evenodd" clip-rule="evenodd" d="M4.30895 4.28711C4.35124 4.34746 5.33081 5.77325 6.48577 7.45552C7.64073 9.13779 8.70895 10.6935 8.85962 10.9127C9.01027 11.1319 9.13354 11.3157 9.13354 11.3211C9.13354 11.3264 9.07743 11.3956 9.00887 11.4748C8.9403 11.5539 8.74717 11.778 8.57971 11.9727C8.41223 12.1674 8.12991 12.4956 7.95233 12.702C7.77475 12.9084 7.46235 13.2716 7.25808 13.5091C7.05383 13.7467 6.68652 14.1737 6.44184 14.4582C5.68509 15.3379 5.57589 15.465 4.99982 16.1359C4.69223 16.4942 4.39727 16.8367 4.34436 16.8971C4.29146 16.9575 4.24817 17.0133 4.24817 17.021C4.24817 17.0301 4.44138 17.0351 4.79251 17.0351H5.33684L5.93528 16.3377C6.26443 15.9541 6.58911 15.5766 6.6568 15.4987C6.80318 15.3303 7.91945 14.0314 8.01327 13.9203C8.0492 13.8778 8.10138 13.8173 8.12923 13.7858C8.1571 13.7544 8.37672 13.4992 8.61727 13.2188C8.85782 12.9385 9.06125 12.7022 9.06931 12.6938C9.07738 12.6854 9.20472 12.5373 9.3523 12.3646C9.49988 12.1919 9.62519 12.0506 9.63075 12.0506C9.63633 12.0506 10.3944 13.1482 11.3154 14.4897C12.2364 15.8313 13.0064 16.9526 13.0265 16.9817L13.0631 17.0345L14.9302 17.0348C16.4657 17.035 16.7961 17.0318 16.7903 17.0165C16.784 17.0002 15.8894 15.6954 13.5944 12.355C11.9423 9.95037 11.7226 9.62723 11.7289 9.61083C11.735 9.59489 11.9601 9.33169 13.4395 7.61011C13.6933 7.31481 14.0431 6.90751 14.2169 6.70501C14.3907 6.50252 14.5662 6.29861 14.6069 6.25188C14.6475 6.20515 14.8614 5.95663 15.0821 5.69962C15.3028 5.44261 15.678 5.0059 15.9158 4.72916C16.1537 4.45242 16.3571 4.21506 16.3677 4.20168C16.386 4.17878 16.3549 4.17737 15.8343 4.17737H15.2814L15.0355 4.46412C14.7082 4.84574 14.1165 5.53393 13.9485 5.72839C13.8743 5.81432 13.7817 5.92231 13.7428 5.96836C13.7038 6.01441 13.627 6.10341 13.572 6.16614C13.5171 6.22887 13.2401 6.55102 12.9566 6.88202C12.673 7.21302 12.4371 7.48703 12.4324 7.49092C12.4276 7.49482 12.3669 7.56529 12.2973 7.64755C12.1758 7.79142 12.052 7.93543 11.4846 8.59353C11.2355 8.8824 11.2227 8.89481 11.2017 8.86826C11.1896 8.85296 10.4597 7.79131 9.57959 6.50905L7.97946 4.17767L6.10576 4.17751L4.23206 4.17737L4.30895 4.28711ZM5.77134 5.05166C5.78542 5.07315 6.13549 5.57501 6.54931 6.16692C7.33412 7.2895 10.4181 11.7035 12.4015 14.5428C13.0353 15.4502 13.5616 16.2006 13.5711 16.2104C13.5846 16.2244 13.7691 16.2274 14.4333 16.2245L15.2784 16.2209L13.067 13.056C11.8507 11.3153 10.0897 8.7951 9.15362 7.45552L7.45173 5.01992L6.59875 5.01626L5.74578 5.01261L5.77134 5.05166Z" fill="#FAFAFA"/>
<path fill-rule="evenodd" clip-rule="evenodd" d="M0 10.5V21L10.5035 20.9965L21.0071 20.9929L21.0106 10.4965L21.0142 0H10.5071H0V10.5ZM0.00703776 10.5071C0.00703776 16.2821 0.00865206 18.6446 0.0106204 15.7571C0.0125887 12.8696 0.0125887 8.14457 0.0106204 5.25708C0.00865206 2.36957 0.00703776 4.73208 0.00703776 10.5071ZM4.30892 4.28709C4.35122 4.34744 5.33079 5.77323 6.48574 7.4555C7.6407 9.13776 8.70892 10.6935 8.85959 10.9127C9.01025 11.1319 9.13351 11.3157 9.13351 11.321C9.13351 11.3264 9.07741 11.3956 9.00884 11.4748C8.94028 11.5539 8.74714 11.778 8.57968 11.9727C8.41221 12.1674 8.12989 12.4956 7.9523 12.702C7.77473 12.9083 7.46232 13.2716 7.25806 13.5091C7.0538 13.7466 6.6865 14.1737 6.44182 14.4581C5.68507 15.3379 5.57586 15.4649 4.9998 16.1359C4.6922 16.4941 4.39724 16.8367 4.34434 16.8971C4.29143 16.9575 4.24815 17.0133 4.24815 17.021C4.24815 17.0301 4.44135 17.0351 4.79249 17.0351H5.33682L5.93525 16.3377C6.2644 15.9541 6.58909 15.5765 6.65677 15.4987C6.80315 15.3303 7.91942 14.0314 8.01325 13.9203C8.04917 13.8778 8.10136 13.8173 8.12921 13.7858C8.15708 13.7543 8.37669 13.4992 8.61725 13.2188C8.85779 12.9384 9.06122 12.7022 9.06928 12.6938C9.07735 12.6854 9.2047 12.5372 9.35228 12.3645C9.49986 12.1919 9.62516 12.0506 9.63073 12.0506C9.63631 12.0506 10.3944 13.1482 11.3154 14.4897C12.2364 15.8312 13.0064 16.9526 13.0265 16.9817L13.063 17.0345L14.9302 17.0348C16.4657 17.035 16.7961 17.0318 16.7902 17.0165C16.784 17.0002 15.8894 15.6954 13.5944 12.355C11.9423 9.95035 11.7226 9.6272 11.7289 9.61081C11.735 9.59486 11.96 9.33166 13.4395 7.61009C13.6933 7.31478 14.0431 6.90748 14.2169 6.70499C14.3907 6.50249 14.5662 6.29858 14.6069 6.25185C14.6475 6.20512 14.8614 5.95661 15.0821 5.6996C15.3028 5.44258 15.678 5.00587 15.9158 4.72913C16.1537 4.4524 16.357 4.21504 16.3677 4.20166C16.386 4.17876 16.3549 4.17734 15.8342 4.17734H15.2813L15.0354 4.46409C14.7081 4.84572 14.1165 5.5339 13.9485 5.72837C13.8743 5.8143 13.7817 5.92228 13.7428 5.96833C13.7038 6.01438 13.627 6.10338 13.572 6.16611C13.5171 6.22884 13.2401 6.55099 12.9565 6.882C12.673 7.213 12.4371 7.487 12.4323 7.4909C12.4276 7.49479 12.3668 7.56527 12.2973 7.64753C12.1757 7.7914 12.052 7.93541 11.4845 8.5935C11.2355 8.88238 11.2227 8.89478 11.2017 8.86823C11.1896 8.85294 10.4596 7.79128 9.57957 6.50902L7.97943 4.17764L6.10573 4.17748L4.23203 4.17734L4.30892 4.28709ZM5.77132 5.05164C5.78539 5.07312 6.13547 5.57498 6.54928 6.16689C7.3341 7.28948 10.4181 11.7034 12.4015 14.5428C13.0353 15.4502 13.5616 16.2005 13.571 16.2103C13.5845 16.2243 13.7691 16.2274 14.4333 16.2245L15.2784 16.2208L13.067 13.056C11.8506 11.3153 10.0896 8.79508 9.15359 7.4555L7.4517 5.01989L6.59873 5.01624L5.74576 5.01259L5.77132 5.05164Z" fill="#040404"/>
</g>
<defs>
<clipPath id="clip0_513_3">
<rect width="21" height="21" fill="white"/>
</clipPath>
</defs>
</svg>
